<?xml version="1.0" encoding="utf-8"?>
<!-- Generator: Adobe Illustrator 23.0.0, SVG Export Plug-In . SVG Version: 6.00 Build 0)  -->
<svg version="1.1" id="Layer_1" xmlns="http://www.w3.org/2000/svg" xmlns:xlink="http://www.w3.org/1999/xlink" x="0px" y="0px"
	 viewBox="0 0 152.47 89.75" style="enable-background:new 0 0 152.47 89.75;" xml:space="preserve">
<style type="text/css">
	.st0{fill:#FFFFFF;}
	.st1{fill:#40434C;}
	.st2{fill:#06F0FF;}
</style>
<g>
	<g>
		<g>
			<g>
				<g>
					<path class="st0" d="M79.08,12.87c1.2-0.32,2.03-0.57,2.66-0.77c0.7-0.2,1.29-0.45,1.77-0.74c0.69-0.41,1.11-0.69,1.66-1.49
						l0.69-1.07l-1.35,0.05c-1.68,0.08-3.75,0.5-8.05,1.56c-3.98,0.99-6.58,1.75-7.96,2.32c-0.97,0.39-1.75,0.8-2.32,1.21
						c-0.87,0.61-1.46,1.36-1.75,2.21l-0.46,1.36l1.32-0.56C68.43,15.75,77.71,13.23,79.08,12.87z"/>
				</g>
				<g>
					<path class="st0" d="M77.84,18.16c-1.18,0.26-8.13,2.16-8.62,2.32c-1.25,0.49-2.53,0.96-3.7,1.76l-1.36,1.3l2.02,0.09
						c1.41-0.05,4.36-0.58,8.51-1.67c4.14-1.09,6.78-1.97,8.07-2.67l1.61-0.87l-2.06-0.37C81.68,17.93,79.88,17.7,77.84,18.16z"/>
				</g>
				<g>
					<path class="st0" d="M88.63,22.85c-2.16,0.38-22.01,6.02-24.23,6.96l-1.02,0.43l0.87,0.67c1.36,1.01,2.05,0.91,2.58,0.78
						l22.95-6.52L88.63,22.85z"/>
				</g>
			</g>
		</g>
		<path class="st0" d="M96.22,13.39c-1.89-5.12-5.71-9.2-10.77-11.47C82.63,0.65,79.61,0,76.49,0c-2.84,0-5.67,0.54-8.4,1.61
			c-0.43,0.17-0.76,0.49-0.95,0.92c-0.18,0.42-0.19,0.88-0.02,1.3c0.25,0.66,0.88,1.09,1.6,1.09c0.22,0,0.44-0.04,0.62-0.12
			c2.33-0.91,4.74-1.37,7.16-1.37c2.63,0,5.17,0.54,7.55,1.61c4.21,1.9,7.39,5.28,8.96,9.53c3.39,9.21-1.75,19.78-11.46,23.57
			c-2.33,0.91-4.74,1.37-7.16,1.37c-2.63,0-5.17-0.54-7.55-1.61c-4.21-1.9-7.39-5.29-8.96-9.54c-0.25-0.67-0.9-1.11-1.61-1.11
			l-0.59,0.1c-0.89,0.33-1.34,1.31-1.02,2.2c1.89,5.12,5.71,9.19,10.77,11.47c2.82,1.27,5.84,1.92,8.96,1.92
			c2.84,0,5.67-0.54,8.41-1.61C94.22,36.87,100.25,24.33,96.22,13.39z"/>
	</g>
	<g>
		<path class="st0" d="M61.38,52.42c0.62,0,1.16,0.22,1.6,0.67c0.44,0.45,0.66,0.98,0.66,1.61c0,0.61-0.22,1.14-0.66,1.59
			c-0.44,0.45-0.98,0.67-1.6,0.67c-0.61,0-1.14-0.22-1.58-0.67c-0.44-0.44-0.66-0.97-0.66-1.59c0-0.63,0.22-1.16,0.66-1.61
			C60.24,52.64,60.76,52.42,61.38,52.42z"/>
		<path class="st0" d="M94.73,78.34h-2.88c-1.4,0-2.37-0.27-2.88-0.79c-0.52-0.53-0.96-1.58-0.96-3.13l-0.02-13.57h6.44v-3.3
			l-6.43,0V51.8H84.2v5.75l-3.32,0.01v3.29h3.32v13.52c0,2.69,0.62,4.64,1.83,5.81c1.21,1.16,3.04,1.75,5.43,1.75h3.27V78.34z"/>
		<rect x="59.72" y="60.89" class="st0" width="3.32" height="20.6"/>
		<path class="st0" d="M35.23,62.8c-1.27-1.27-3.05-1.91-5.3-1.91c-1.51,0-2.86,0.32-4.04,0.95c-0.81,0.44-1.57,1.01-2.21,1.75
			l0-1.99h-3.33l0.04,19.66h3.33l-0.04-10.25c0-2.41,0.37-3.99,1.52-5.27c2.11-2.36,5.91-1.88,7.32-0.39
			c0.74,0.78,1.04,2.13,1.04,3.88l0,12.03h3.62l-0.01-13.2C37.18,65.84,36.5,64.06,35.23,62.8z"/>
		<path class="st0" d="M18.76,70.97c0-3.11-0.83-5.6-2.48-7.4c-1.64-1.81-3.91-2.73-6.73-2.73c-2.79,0-5.1,0.97-6.88,2.87
			C0.9,65.61,0,68.08,0,71.05c0,1.86,0.22,3.19,0.71,4.31c1.58,3.58,3.42,4.84,5.7,5.62c0.98,0.34,2.1,0.51,3.34,0.51
			c1.95,0,3.69-0.44,5.17-1.32c1.42-0.83,2.62-2.08,3.56-3.69l0.22-0.37l-2.66-1.79c0,0-0.84,1.9-2.83,3.11
			c-1,0.6-2.07,0.98-3.29,0.98c-1.78,0-3.23-0.6-4.33-1.79c-0.75-0.8-1.24-1.61-1.61-2.63c-1.04-2.92-0.06-5.92,0.41-6.83
			c0.41-0.8,0.8-1.34,1.26-1.76c1-0.9,2.26-1.35,3.75-1.35c1.66,0,2.85,0.47,3.93,1.29c1.43,1.09,1.73,2.93,1.85,3.46l-8.61,0l0,2.8
			l12.19,0V70.97z"/>
		<path class="st0" d="M112.83,70.97c0-3.11-0.83-5.6-2.48-7.4c-1.64-1.81-3.91-2.73-6.73-2.73c-2.79,0-5.1,0.97-6.88,2.87
			c-1.78,1.89-2.68,4.36-2.68,7.34c0,1.86,0.22,3.19,0.71,4.31c1.58,3.58,3.42,4.84,5.7,5.62c0.98,0.34,2.1,0.51,3.34,0.51
			c1.95,0,3.69-0.44,5.17-1.32c1.42-0.83,2.62-2.08,3.56-3.69l0.22-0.37l-2.66-1.79c0,0-0.84,1.9-2.83,3.11
			c-1,0.6-2.07,0.98-3.29,0.98c-1.78,0-3.23-0.6-4.33-1.79c-0.75-0.8-1.24-1.61-1.61-2.63c-1.04-2.92-0.06-5.92,0.41-6.83
			c0.41-0.8,0.8-1.34,1.26-1.76c1-0.9,2.26-1.35,3.75-1.35c1.66,0,2.85,0.47,3.93,1.29c1.43,1.09,1.73,2.93,1.85,3.46l-8.61,0l0,2.8
			l12.19,0V70.97z"/>
		<path class="st0" d="M54.28,60.84v2.05c-0.51-0.67-1.12-1.25-1.87-1.73c-1.27-0.81-2.71-1.22-4.28-1.22
			c-2.78,0-5.04,0.99-6.73,2.94c-1.68,1.93-2.53,4.51-2.53,7.67c0,3.19,0.83,5.77,2.47,7.69c1.66,1.93,3.9,2.91,6.66,2.91
			c1.62,0,3.08-0.41,4.34-1.21c0.77-0.49,1.43-1.11,1.96-1.83v2.1c0,1.24-0.06,2.17-0.19,2.75c-0.12,0.56-0.33,1.05-0.61,1.47
			c-0.41,0.64-1.05,1.16-1.89,1.53c-0.86,0.38-1.85,0.57-2.94,0.57c-1.44,0-2.58-0.27-3.4-0.81c-0.79-0.52-1.28-1.3-1.47-2.32
			L43.75,83h-3.94l-0.18,0.3l0.03,0.22c0.32,2.08,1.23,3.66,2.72,4.7c1.46,1.01,3.51,1.53,6.09,1.53c2.11,0,3.89-0.36,5.29-1.07
			c1.43-0.73,2.5-1.85,3.19-3.33c0.33-0.68,0.57-1.71,0.71-3.06c0.13-1.32,0.2-3.24,0.2-5.7l0.03-15.76H54.28z M52.64,75.81
			c-1.11,1.31-2.61,1.98-4.47,1.98c-1.74,0-3.11-0.62-4.08-1.85c-1-1.26-1.5-3.06-1.5-5.36c0-2.31,0.53-4.14,1.58-5.44
			c1.04-1.29,2.43-1.91,4.25-1.91c1.87,0,3.28,0.6,4.33,1.85c1.05,1.25,1.59,3.03,1.59,5.28C54.35,72.64,53.77,74.48,52.64,75.81z"
			/>
		<g>
			<g>
				<path class="st0" d="M130.52,62.83c1.64,1.26,2.75,2.97,3.33,5.13h-3.47c-0.48-1.22-1.24-2.19-2.28-2.91
					c-1.04-0.72-2.32-1.08-3.83-1.08c-1.2,0-2.28,0.3-3.23,0.89c-0.95,0.59-1.69,1.44-2.24,2.54c-0.54,1.1-0.82,2.39-0.82,3.86
					c0,1.45,0.27,2.73,0.82,3.83c0.55,1.1,1.29,1.95,2.24,2.54c0.95,0.59,2.02,0.89,3.23,0.89c1.51,0,2.79-0.36,3.83-1.07
					c1.04-0.72,1.8-1.68,2.28-2.88h3.47c-0.57,2.16-1.68,3.87-3.33,5.12c-1.64,1.25-3.71,1.88-6.2,1.88c-1.91,0-3.6-0.44-5.08-1.31
					c-1.47-0.87-2.61-2.08-3.41-3.64c-0.8-1.56-1.21-3.34-1.21-5.35c0-2.01,0.4-3.79,1.21-5.35c0.8-1.56,1.94-2.78,3.41-3.66
					c1.47-0.88,3.17-1.32,5.08-1.32C126.81,60.93,128.88,61.56,130.52,62.83z"/>
			</g>
		</g>
		<path class="st0" d="M79.76,62.8c-1.27-1.27-3.05-1.91-5.3-1.91c-1.51,0-2.86,0.32-4.04,0.95c-0.81,0.44-1.57,1.01-2.21,1.75
			l0-2.7h-3.33l0.04,20.38h3.33l-0.04-10.25c0-2.41,0.37-3.99,1.52-5.27c2.11-2.36,5.91-1.88,7.32-0.39
			c0.74,0.78,1.04,2.13,1.04,3.88l0,12.03h3.62l-0.01-13.2C81.7,65.84,81.03,64.06,79.76,62.8z"/>
		<path class="st0" d="M150.52,62.8c-1.27-1.27-3.05-1.91-5.3-1.91c-1.51,0-2.86,0.32-4.04,0.95c-0.81,0.44-1.57,1.01-2.21,1.75
			l0-11.76h-3.33l0.04,29.72h3.33l-0.04-10.54c0-2.41,0.37-3.99,1.52-5.27c2.11-2.36,5.91-1.88,7.32-0.39
			c0.74,0.78,1.04,2.13,1.04,3.88l0,12.33h3.62l-0.01-13.49C152.47,65.84,151.79,64.06,150.52,62.8z"/>
	</g>
</g>
</svg>
